<svg xmlns="http://www.w3.org/2000/svg" xmlns:xlink="http://www.w3.org/1999/xlink" width="250" zoomAndPan="magnify" viewBox="0 0 187.5 60" height="80" preserveAspectRatio="xMidYMid meet" version="1.0"><defs><g/><clipPath id="id1"><path d="M 0 0.078125 L 187 0.078125 L 187 59.917969 L 0 59.917969 Z M 0 0.078125 " clip-rule="nonzero"/></clipPath><clipPath id="id2"><path d="M 157.542969 24.078125 L 166 24.078125 L 166 36.078125 L 157.542969 36.078125 Z M 157.542969 24.078125 " clip-rule="nonzero"/></clipPath><clipPath id="id3"><path d="M 163 24.078125 L 171.042969 24.078125 L 171.042969 36.078125 L 163 36.078125 Z M 163 24.078125 " clip-rule="nonzero"/></clipPath></defs><g clip-path="url(#id1)"><path fill="rgb(100%, 100%, 100%)" d="M 185.511719 60.078125 L 1.988281 60.078125 C 0.894531 60.078125 0 59.1875 0 58.089844 L 0 2.070312 C 0 0.972656 0.894531 0.078125 1.988281 0.078125 L 185.511719 0.078125 C 186.605469 0.078125 187.5 0.972656 187.5 2.070312 L 187.5 58.089844 C 187.5 59.1875 186.605469 60.078125 185.511719 60.078125 " fill-opacity="1" fill-rule="nonzero"/></g><g fill="rgb(92.549133%, 7.839966%, 20.779419%)" fill-opacity="1"><g transform="translate(22.403861, 34.579786)"><g><path d="M 11.320312 -9.191406 L 9.457031 -9.191406 L 6.226562 -2.21875 L 2.996094 -9.191406 L 1.078125 -9.191406 L 1.078125 0 L 2.613281 0 L 2.613281 -6.527344 L 5.671875 0 L 6.710938 0 L 9.785156 -6.539062 L 9.785156 0 L 11.320312 0 Z M 11.320312 -9.191406 "/></g></g></g><g fill="rgb(92.549133%, 7.839966%, 20.779419%)" fill-opacity="1"><g transform="translate(34.793806, 34.579786)"><g><path d="M 1.523438 2.914062 C 2.0625 2.914062 2.519531 2.757812 2.902344 2.417969 C 3.28125 2.089844 3.636719 1.535156 3.953125 0.773438 L 6.933594 -6.433594 L 5.371094 -6.433594 L 3.558594 -1.800781 L 1.800781 -6.433594 L 0.183594 -6.433594 L 2.757812 -0.09375 L 2.480469 0.578125 C 2.324219 0.945312 2.167969 1.207031 1.984375 1.351562 C 1.800781 1.496094 1.5625 1.5625 1.300781 1.5625 C 1.050781 1.5625 0.828125 1.523438 0.628906 1.429688 L 0.628906 2.730469 C 0.734375 2.785156 0.855469 2.824219 1 2.863281 C 1.140625 2.902344 1.3125 2.914062 1.523438 2.914062 Z M 1.523438 2.914062 "/></g></g></g><g fill="rgb(92.549133%, 7.839966%, 20.779419%)" fill-opacity="1"><g transform="translate(41.907522, 34.579786)"><g/></g></g><g fill="rgb(0%, 0%, 0%)" fill-opacity="1"><g transform="translate(45.032766, 34.579786)"><g><path d="M 0.605469 -4.597656 C 0.605469 -3.914062 0.722656 -3.296875 0.972656 -2.71875 C 1.207031 -2.140625 1.550781 -1.628906 1.96875 -1.207031 C 2.390625 -0.773438 2.890625 -0.433594 3.46875 -0.195312 C 4.042969 0.0390625 4.660156 0.15625 5.332031 0.15625 C 5.753906 0.15625 6.171875 0.105469 6.605469 -0.0117188 C 7.027344 -0.117188 7.460938 -0.300781 7.878906 -0.566406 L 7.878906 -2.257812 C 7.460938 -1.96875 7.050781 -1.746094 6.644531 -1.601562 C 6.226562 -1.445312 5.804688 -1.378906 5.359375 -1.378906 C 4.910156 -1.378906 4.492188 -1.457031 4.109375 -1.628906 C 3.730469 -1.785156 3.402344 -2.023438 3.125 -2.3125 C 2.835938 -2.601562 2.625 -2.941406 2.46875 -3.335938 C 2.3125 -3.730469 2.234375 -4.148438 2.234375 -4.597656 C 2.234375 -5.042969 2.3125 -5.476562 2.46875 -5.871094 C 2.625 -6.265625 2.835938 -6.605469 3.125 -6.894531 C 3.402344 -7.183594 3.730469 -7.40625 4.109375 -7.578125 C 4.492188 -7.734375 4.910156 -7.828125 5.359375 -7.828125 C 5.804688 -7.828125 6.238281 -7.75 6.644531 -7.605469 C 7.039062 -7.445312 7.445312 -7.222656 7.851562 -6.921875 L 7.851562 -8.613281 C 7.460938 -8.851562 7.050781 -9.035156 6.632812 -9.167969 C 6.210938 -9.296875 5.792969 -9.363281 5.34375 -9.363281 C 4.675781 -9.363281 4.058594 -9.230469 3.480469 -8.996094 C 2.902344 -8.746094 2.390625 -8.40625 1.96875 -7.984375 C 1.550781 -7.550781 1.207031 -7.039062 0.972656 -6.460938 C 0.722656 -5.882812 0.605469 -5.253906 0.605469 -4.597656 Z M 0.605469 -4.597656 "/></g></g></g><g fill="rgb(0%, 0%, 0%)" fill-opacity="1"><g transform="translate(53.472108, 34.579786)"><g><path d="M 4.648438 -4.976562 L 4.648438 -6.527344 C 4.621094 -6.554688 4.519531 -6.566406 4.359375 -6.566406 C 3.941406 -6.566406 3.546875 -6.449219 3.203125 -6.226562 C 2.851562 -6 2.601562 -5.699219 2.441406 -5.332031 L 2.441406 -6.433594 L 0.945312 -6.433594 L 0.945312 0 L 2.457031 0 L 2.457031 -2.835938 C 2.457031 -3.492188 2.613281 -4.03125 2.929688 -4.425781 C 3.242188 -4.820312 3.691406 -5.03125 4.253906 -5.03125 C 4.4375 -5.03125 4.570312 -5.003906 4.648438 -4.976562 Z M 4.648438 -4.976562 "/></g></g></g><g fill="rgb(0%, 0%, 0%)" fill-opacity="1"><g transform="translate(58.433338, 34.579786)"><g><path d="M 1.523438 2.914062 C 2.0625 2.914062 2.519531 2.757812 2.902344 2.417969 C 3.28125 2.089844 3.636719 1.535156 3.953125 0.773438 L 6.933594 -6.433594 L 5.371094 -6.433594 L 3.558594 -1.800781 L 1.800781 -6.433594 L 0.183594 -6.433594 L 2.757812 -0.09375 L 2.480469 0.578125 C 2.324219 0.945312 2.167969 1.207031 1.984375 1.351562 C 1.800781 1.496094 1.5625 1.5625 1.300781 1.5625 C 1.050781 1.5625 0.828125 1.523438 0.628906 1.429688 L 0.628906 2.730469 C 0.734375 2.785156 0.855469 2.824219 1 2.863281 C 1.140625 2.902344 1.3125 2.914062 1.523438 2.914062 Z M 1.523438 2.914062 "/></g></g></g><g fill="rgb(0%, 0%, 0%)" fill-opacity="1"><g transform="translate(65.547054, 34.579786)"><g><path d="M 2.457031 -6.433594 L 0.945312 -6.433594 L 0.945312 2.730469 L 2.457031 2.730469 L 2.457031 -0.878906 C 2.691406 -0.539062 2.996094 -0.289062 3.386719 -0.105469 C 3.769531 0.078125 4.1875 0.15625 4.636719 0.15625 C 5.082031 0.15625 5.488281 0.078125 5.871094 -0.105469 C 6.25 -0.277344 6.578125 -0.511719 6.867188 -0.8125 C 7.144531 -1.117188 7.367188 -1.472656 7.523438 -1.890625 C 7.683594 -2.296875 7.773438 -2.746094 7.773438 -3.21875 C 7.773438 -3.691406 7.683594 -4.136719 7.523438 -4.558594 C 7.367188 -4.964844 7.144531 -5.320312 6.867188 -5.621094 C 6.578125 -5.921875 6.25 -6.160156 5.871094 -6.328125 C 5.488281 -6.5 5.082031 -6.59375 4.636719 -6.59375 C 4.1875 -6.59375 3.769531 -6.488281 3.386719 -6.304688 C 2.996094 -6.105469 2.691406 -5.84375 2.457031 -5.515625 Z M 6.25 -3.21875 C 6.25 -2.929688 6.199219 -2.664062 6.09375 -2.429688 C 5.988281 -2.191406 5.855469 -1.984375 5.6875 -1.800781 C 5.515625 -1.617188 5.320312 -1.484375 5.082031 -1.378906 C 4.847656 -1.273438 4.582031 -1.222656 4.320312 -1.222656 C 4.042969 -1.222656 3.796875 -1.273438 3.558594 -1.378906 C 3.324219 -1.484375 3.113281 -1.617188 2.941406 -1.800781 C 2.769531 -1.984375 2.640625 -2.191406 2.535156 -2.429688 C 2.429688 -2.664062 2.390625 -2.929688 2.390625 -3.21875 C 2.390625 -3.492188 2.429688 -3.757812 2.535156 -3.992188 C 2.640625 -4.230469 2.769531 -4.4375 2.941406 -4.621094 C 3.113281 -4.804688 3.324219 -4.949219 3.558594 -5.054688 C 3.796875 -5.160156 4.042969 -5.214844 4.320312 -5.214844 C 4.582031 -5.214844 4.847656 -5.160156 5.082031 -5.054688 C 5.320312 -4.949219 5.515625 -4.804688 5.6875 -4.621094 C 5.855469 -4.4375 5.988281 -4.230469 6.09375 -3.992188 C 6.199219 -3.757812 6.25 -3.492188 6.25 -3.21875 Z M 6.25 -3.21875 "/></g></g></g><g fill="rgb(0%, 0%, 0%)" fill-opacity="1"><g transform="translate(73.842017, 34.579786)"><g><path d="M 2.730469 -8.339844 L 1.222656 -8.339844 L 1.222656 -6.433594 L 0.261719 -6.433594 L 0.261719 -5.148438 L 1.222656 -5.148438 L 1.222656 -1.984375 C 1.222656 -1.300781 1.390625 -0.773438 1.757812 -0.40625 C 2.128906 -0.0273438 2.625 0.15625 3.28125 0.15625 C 3.546875 0.15625 3.769531 0.144531 3.964844 0.09375 C 4.148438 0.0507812 4.308594 0 4.4375 -0.078125 L 4.4375 -1.429688 C 4.332031 -1.351562 4.230469 -1.300781 4.097656 -1.273438 C 3.964844 -1.246094 3.847656 -1.234375 3.730469 -1.234375 C 3.386719 -1.234375 3.125 -1.3125 2.96875 -1.472656 C 2.808594 -1.628906 2.730469 -1.890625 2.730469 -2.257812 L 2.730469 -5.148438 L 4.4375 -5.148438 L 4.4375 -6.433594 L 2.730469 -6.433594 Z M 2.730469 -8.339844 "/></g></g></g><g fill="rgb(0%, 0%, 0%)" fill-opacity="1"><g transform="translate(78.671996, 34.579786)"><g><path d="M 3.953125 -6.59375 C 3.453125 -6.59375 3.007812 -6.5 2.585938 -6.328125 C 2.167969 -6.144531 1.800781 -5.910156 1.496094 -5.609375 C 1.183594 -5.304688 0.945312 -4.949219 0.773438 -4.542969 C 0.605469 -4.125 0.523438 -3.691406 0.523438 -3.21875 C 0.523438 -2.746094 0.605469 -2.296875 0.773438 -1.890625 C 0.945312 -1.472656 1.183594 -1.117188 1.496094 -0.8125 C 1.800781 -0.511719 2.167969 -0.277344 2.585938 -0.105469 C 3.007812 0.078125 3.453125 0.15625 3.953125 0.15625 C 4.4375 0.15625 4.898438 0.078125 5.320312 -0.105469 C 5.738281 -0.277344 6.09375 -0.511719 6.410156 -0.8125 C 6.710938 -1.117188 6.945312 -1.472656 7.117188 -1.890625 C 7.289062 -2.296875 7.378906 -2.746094 7.378906 -3.21875 C 7.378906 -3.691406 7.289062 -4.125 7.117188 -4.542969 C 6.945312 -4.949219 6.710938 -5.304688 6.410156 -5.609375 C 6.09375 -5.910156 5.738281 -6.144531 5.320312 -6.328125 C 4.898438 -6.5 4.4375 -6.59375 3.953125 -6.59375 Z M 3.953125 -5.199219 C 4.214844 -5.199219 4.464844 -5.148438 4.703125 -5.042969 C 4.9375 -4.9375 5.136719 -4.792969 5.304688 -4.621094 C 5.476562 -4.4375 5.609375 -4.230469 5.710938 -3.992188 C 5.816406 -3.742188 5.871094 -3.480469 5.871094 -3.21875 C 5.871094 -2.929688 5.816406 -2.664062 5.710938 -2.429688 C 5.609375 -2.191406 5.476562 -1.984375 5.304688 -1.8125 C 5.136719 -1.628906 4.9375 -1.496094 4.703125 -1.390625 C 4.464844 -1.285156 4.214844 -1.234375 3.953125 -1.234375 C 3.675781 -1.234375 3.425781 -1.285156 3.191406 -1.390625 C 2.953125 -1.496094 2.757812 -1.628906 2.585938 -1.8125 C 2.417969 -1.984375 2.285156 -2.191406 2.179688 -2.429688 C 2.074219 -2.664062 2.035156 -2.929688 2.035156 -3.21875 C 2.035156 -3.480469 2.074219 -3.742188 2.179688 -3.992188 C 2.285156 -4.230469 2.417969 -4.4375 2.585938 -4.621094 C 2.757812 -4.792969 2.953125 -4.9375 3.191406 -5.042969 C 3.425781 -5.148438 3.675781 -5.199219 3.953125 -5.199219 Z M 3.953125 -5.199219 "/></g></g></g><g fill="rgb(0%, 0%, 0%)" fill-opacity="1"><g transform="translate(86.564012, 34.579786)"><g><path d="M 1.601562 -2.128906 L 0.367188 -1.484375 C 0.550781 -0.984375 0.855469 -0.578125 1.300781 -0.289062 C 1.734375 0.0117188 2.257812 0.15625 2.863281 0.15625 C 3.179688 0.15625 3.46875 0.117188 3.757812 0.0273438 C 4.042969 -0.0664062 4.292969 -0.195312 4.519531 -0.378906 C 4.726562 -0.566406 4.898438 -0.773438 5.03125 -1.039062 C 5.160156 -1.285156 5.226562 -1.574219 5.226562 -1.917969 C 5.226562 -2.335938 5.09375 -2.707031 4.832031 -3.019531 C 4.570312 -3.335938 4.136719 -3.585938 3.53125 -3.796875 L 2.769531 -4.042969 C 2.285156 -4.203125 2.046875 -4.425781 2.046875 -4.742188 C 2.046875 -4.925781 2.113281 -5.070312 2.273438 -5.175781 C 2.417969 -5.277344 2.601562 -5.332031 2.824219 -5.332031 C 3.058594 -5.332031 3.28125 -5.253906 3.46875 -5.09375 C 3.652344 -4.9375 3.808594 -4.726562 3.941406 -4.476562 L 5.160156 -5.136719 C 4.949219 -5.582031 4.648438 -5.9375 4.230469 -6.199219 C 3.808594 -6.460938 3.347656 -6.59375 2.824219 -6.59375 C 2.507812 -6.59375 2.21875 -6.539062 1.957031 -6.449219 C 1.695312 -6.355469 1.457031 -6.226562 1.261719 -6.054688 C 1.050781 -5.882812 0.894531 -5.671875 0.773438 -5.4375 C 0.65625 -5.1875 0.605469 -4.910156 0.605469 -4.621094 C 0.605469 -3.730469 1.140625 -3.097656 2.246094 -2.757812 L 3.019531 -2.507812 C 3.269531 -2.429688 3.453125 -2.335938 3.570312 -2.234375 C 3.691406 -2.128906 3.757812 -1.984375 3.757812 -1.8125 C 3.757812 -1.574219 3.664062 -1.40625 3.492188 -1.300781 C 3.324219 -1.195312 3.125 -1.140625 2.890625 -1.140625 C 2.601562 -1.140625 2.335938 -1.222656 2.113281 -1.40625 C 1.878906 -1.589844 1.707031 -1.824219 1.601562 -2.128906 Z M 1.601562 -2.128906 "/></g></g></g><g fill="rgb(0%, 0%, 0%)" fill-opacity="1"><g transform="translate(92.194608, 34.579786)"><g/></g></g><g fill="rgb(0%, 0%, 0%)" fill-opacity="1"><g transform="translate(95.331468, 34.579786)"><g><path d="M 7.378906 0 L 9.441406 0 L 7.105469 -2.324219 L 8.679688 -4.175781 L 7.617188 -5.054688 L 6.09375 -3.28125 L 4.519531 -4.859375 C 5.070312 -5.253906 5.464844 -5.632812 5.699219 -6 C 5.9375 -6.371094 6.054688 -6.761719 6.054688 -7.210938 C 6.054688 -7.511719 5.988281 -7.800781 5.871094 -8.0625 C 5.753906 -8.324219 5.59375 -8.550781 5.382812 -8.746094 C 5.175781 -8.929688 4.9375 -9.085938 4.648438 -9.191406 C 4.359375 -9.296875 4.058594 -9.363281 3.742188 -9.363281 C 3.402344 -9.363281 3.074219 -9.296875 2.785156 -9.191406 C 2.480469 -9.074219 2.21875 -8.917969 2.007812 -8.707031 C 1.800781 -8.496094 1.628906 -8.261719 1.511719 -7.984375 C 1.378906 -7.707031 1.328125 -7.417969 1.328125 -7.105469 C 1.328125 -6.738281 1.390625 -6.394531 1.550781 -6.066406 C 1.707031 -5.726562 1.957031 -5.382812 2.296875 -5.042969 C 1.667969 -4.621094 1.222656 -4.1875 0.933594 -3.757812 C 0.644531 -3.308594 0.5 -2.824219 0.5 -2.296875 C 0.5 -1.929688 0.566406 -1.601562 0.695312 -1.300781 C 0.828125 -1 1.011719 -0.734375 1.246094 -0.523438 C 1.484375 -0.300781 1.757812 -0.132812 2.089844 -0.0117188 C 2.402344 0.105469 2.769531 0.15625 3.164062 0.15625 C 3.714844 0.15625 4.242188 0.0507812 4.742188 -0.183594 C 5.238281 -0.40625 5.699219 -0.761719 6.144531 -1.246094 Z M 3.335938 -1.222656 C 3.152344 -1.222656 2.96875 -1.246094 2.808594 -1.3125 C 2.652344 -1.367188 2.507812 -1.457031 2.390625 -1.5625 C 2.273438 -1.667969 2.179688 -1.785156 2.113281 -1.929688 C 2.046875 -2.074219 2.023438 -2.234375 2.023438 -2.402344 C 2.023438 -2.585938 2.046875 -2.757812 2.128906 -2.929688 C 2.207031 -3.085938 2.296875 -3.242188 2.417969 -3.386719 C 2.535156 -3.53125 2.664062 -3.664062 2.808594 -3.78125 C 2.953125 -3.886719 3.097656 -3.992188 3.257812 -4.097656 L 5.121094 -2.21875 L 5.109375 -2.207031 C 4.53125 -1.550781 3.941406 -1.222656 3.335938 -1.222656 Z M 2.769531 -7.144531 C 2.769531 -7.40625 2.863281 -7.628906 3.046875 -7.8125 C 3.230469 -7.996094 3.441406 -8.101562 3.703125 -8.101562 C 3.964844 -8.101562 4.203125 -8.011719 4.386719 -7.828125 C 4.570312 -7.644531 4.660156 -7.433594 4.660156 -7.183594 C 4.660156 -6.945312 4.570312 -6.722656 4.398438 -6.488281 C 4.230469 -6.25 3.953125 -6.015625 3.570312 -5.765625 C 3.28125 -6.039062 3.085938 -6.289062 2.953125 -6.5 C 2.824219 -6.710938 2.769531 -6.933594 2.769531 -7.144531 Z M 2.769531 -7.144531 "/></g></g></g><g fill="rgb(0%, 0%, 0%)" fill-opacity="1"><g transform="translate(104.820805, 34.579786)"><g/></g></g><g fill="rgb(0%, 0%, 0%)" fill-opacity="1"><g transform="translate(107.957664, 34.579786)"><g><path d="M 1.824219 -2.796875 L 0.433594 -2.140625 C 0.683594 -1.40625 1.101562 -0.828125 1.695312 -0.433594 C 2.273438 -0.0390625 2.953125 0.15625 3.730469 0.15625 C 4.148438 0.15625 4.542969 0.105469 4.925781 -0.0273438 C 5.292969 -0.15625 5.621094 -0.339844 5.910156 -0.578125 C 6.183594 -0.8125 6.410156 -1.117188 6.578125 -1.457031 C 6.738281 -1.800781 6.828125 -2.191406 6.828125 -2.640625 C 6.828125 -3.242188 6.644531 -3.757812 6.289062 -4.175781 C 5.9375 -4.597656 5.398438 -4.9375 4.6875 -5.226562 L 3.558594 -5.660156 C 3.179688 -5.804688 2.890625 -5.960938 2.707031 -6.144531 C 2.507812 -6.328125 2.417969 -6.554688 2.417969 -6.84375 C 2.417969 -7.15625 2.535156 -7.40625 2.769531 -7.605469 C 3.007812 -7.789062 3.308594 -7.894531 3.675781 -7.894531 C 4.070312 -7.894531 4.398438 -7.761719 4.660156 -7.523438 C 4.925781 -7.289062 5.121094 -6.988281 5.265625 -6.644531 L 6.617188 -7.328125 C 6.355469 -7.957031 5.976562 -8.457031 5.449219 -8.8125 C 4.925781 -9.167969 4.320312 -9.351562 3.664062 -9.363281 C 3.257812 -9.363281 2.875 -9.296875 2.535156 -9.179688 C 2.191406 -9.046875 1.890625 -8.878906 1.628906 -8.65625 C 1.367188 -8.417969 1.167969 -8.140625 1.023438 -7.828125 C 0.878906 -7.5 0.8125 -7.144531 0.8125 -6.75 C 0.8125 -6.121094 1 -5.59375 1.378906 -5.1875 C 1.746094 -4.765625 2.285156 -4.4375 2.96875 -4.203125 L 4.058594 -3.808594 C 4.820312 -3.519531 5.214844 -3.097656 5.214844 -2.535156 C 5.214844 -2.140625 5.070312 -1.839844 4.78125 -1.628906 C 4.492188 -1.417969 4.148438 -1.328125 3.757812 -1.328125 C 3.28125 -1.328125 2.890625 -1.457031 2.5625 -1.71875 C 2.234375 -1.984375 1.984375 -2.351562 1.824219 -2.796875 Z M 1.824219 -2.796875 "/></g></g></g><g fill="rgb(0%, 0%, 0%)" fill-opacity="1"><g transform="translate(115.255138, 34.579786)"><g><path d="M 2.730469 -8.339844 L 1.222656 -8.339844 L 1.222656 -6.433594 L 0.261719 -6.433594 L 0.261719 -5.148438 L 1.222656 -5.148438 L 1.222656 -1.984375 C 1.222656 -1.300781 1.390625 -0.773438 1.757812 -0.40625 C 2.128906 -0.0273438 2.625 0.15625 3.28125 0.15625 C 3.546875 0.15625 3.769531 0.144531 3.964844 0.09375 C 4.148438 0.0507812 4.308594 0 4.4375 -0.078125 L 4.4375 -1.429688 C 4.332031 -1.351562 4.230469 -1.300781 4.097656 -1.273438 C 3.964844 -1.246094 3.847656 -1.234375 3.730469 -1.234375 C 3.386719 -1.234375 3.125 -1.3125 2.96875 -1.472656 C 2.808594 -1.628906 2.730469 -1.890625 2.730469 -2.257812 L 2.730469 -5.148438 L 4.4375 -5.148438 L 4.4375 -6.433594 L 2.730469 -6.433594 Z M 2.730469 -8.339844 "/></g></g></g><g fill="rgb(0%, 0%, 0%)" fill-opacity="1"><g transform="translate(120.085116, 34.579786)"><g><path d="M 3.953125 -6.59375 C 3.453125 -6.59375 3.007812 -6.5 2.585938 -6.328125 C 2.167969 -6.144531 1.800781 -5.910156 1.496094 -5.609375 C 1.183594 -5.304688 0.945312 -4.949219 0.773438 -4.542969 C 0.605469 -4.125 0.523438 -3.691406 0.523438 -3.21875 C 0.523438 -2.746094 0.605469 -2.296875 0.773438 -1.890625 C 0.945312 -1.472656 1.183594 -1.117188 1.496094 -0.8125 C 1.800781 -0.511719 2.167969 -0.277344 2.585938 -0.105469 C 3.007812 0.078125 3.453125 0.15625 3.953125 0.15625 C 4.4375 0.15625 4.898438 0.078125 5.320312 -0.105469 C 5.738281 -0.277344 6.09375 -0.511719 6.410156 -0.8125 C 6.710938 -1.117188 6.945312 -1.472656 7.117188 -1.890625 C 7.289062 -2.296875 7.378906 -2.746094 7.378906 -3.21875 C 7.378906 -3.691406 7.289062 -4.125 7.117188 -4.542969 C 6.945312 -4.949219 6.710938 -5.304688 6.410156 -5.609375 C 6.09375 -5.910156 5.738281 -6.144531 5.320312 -6.328125 C 4.898438 -6.5 4.4375 -6.59375 3.953125 -6.59375 Z M 3.953125 -5.199219 C 4.214844 -5.199219 4.464844 -5.148438 4.703125 -5.042969 C 4.9375 -4.9375 5.136719 -4.792969 5.304688 -4.621094 C 5.476562 -4.4375 5.609375 -4.230469 5.710938 -3.992188 C 5.816406 -3.742188 5.871094 -3.480469 5.871094 -3.21875 C 5.871094 -2.929688 5.816406 -2.664062 5.710938 -2.429688 C 5.609375 -2.191406 5.476562 -1.984375 5.304688 -1.8125 C 5.136719 -1.628906 4.9375 -1.496094 4.703125 -1.390625 C 4.464844 -1.285156 4.214844 -1.234375 3.953125 -1.234375 C 3.675781 -1.234375 3.425781 -1.285156 3.191406 -1.390625 C 2.953125 -1.496094 2.757812 -1.628906 2.585938 -1.8125 C 2.417969 -1.984375 2.285156 -2.191406 2.179688 -2.429688 C 2.074219 -2.664062 2.035156 -2.929688 2.035156 -3.21875 C 2.035156 -3.480469 2.074219 -3.742188 2.179688 -3.992188 C 2.285156 -4.230469 2.417969 -4.4375 2.585938 -4.621094 C 2.757812 -4.792969 2.953125 -4.9375 3.191406 -5.042969 C 3.425781 -5.148438 3.675781 -5.199219 3.953125 -5.199219 Z M 3.953125 -5.199219 "/></g></g></g><g fill="rgb(0%, 0%, 0%)" fill-opacity="1"><g transform="translate(127.986334, 34.579786)"><g><path d="M 0.523438 -3.21875 C 0.523438 -2.71875 0.605469 -2.273438 0.773438 -1.863281 C 0.933594 -1.445312 1.167969 -1.089844 1.472656 -0.789062 C 1.757812 -0.484375 2.113281 -0.25 2.535156 -0.09375 C 2.953125 0.078125 3.414062 0.15625 3.914062 0.15625 C 4.542969 0.15625 5.121094 0.0117188 5.671875 -0.300781 L 5.671875 -1.8125 C 5.4375 -1.65625 5.1875 -1.511719 4.925781 -1.40625 C 4.648438 -1.285156 4.359375 -1.234375 4.058594 -1.234375 C 3.769531 -1.234375 3.492188 -1.273438 3.257812 -1.378906 C 3.007812 -1.484375 2.796875 -1.617188 2.625 -1.800781 C 2.441406 -1.984375 2.3125 -2.191406 2.207031 -2.429688 C 2.101562 -2.664062 2.0625 -2.929688 2.0625 -3.21875 C 2.0625 -3.492188 2.101562 -3.757812 2.207031 -3.992188 C 2.3125 -4.230469 2.441406 -4.4375 2.625 -4.621094 C 2.808594 -4.804688 3.019531 -4.9375 3.257812 -5.042969 C 3.492188 -5.148438 3.769531 -5.199219 4.058594 -5.199219 C 4.609375 -5.199219 5.136719 -5.003906 5.648438 -4.621094 L 5.648438 -6.132812 C 5.136719 -6.433594 4.558594 -6.59375 3.925781 -6.59375 C 3.425781 -6.59375 2.96875 -6.5 2.546875 -6.328125 C 2.128906 -6.160156 1.773438 -5.921875 1.472656 -5.621094 C 1.167969 -5.320312 0.933594 -4.964844 0.773438 -4.558594 C 0.605469 -4.136719 0.523438 -3.691406 0.523438 -3.21875 Z M 0.523438 -3.21875 "/></g></g></g><g fill="rgb(0%, 0%, 0%)" fill-opacity="1"><g transform="translate(134.181306, 34.579786)"><g><path d="M 6.738281 -6.433594 L 4.871094 -6.433594 L 2.457031 -4.003906 L 2.457031 -9.191406 L 0.945312 -9.191406 L 0.945312 0 L 2.457031 0 L 2.457031 -2.546875 L 2.785156 -2.851562 L 5.082031 0 L 6.945312 0 L 3.941406 -3.636719 Z M 6.738281 -6.433594 "/></g></g></g><g fill="rgb(0%, 0%, 0%)" fill-opacity="1"><g transform="translate(141.216275, 34.579786)"><g><path d="M 1.601562 -2.128906 L 0.367188 -1.484375 C 0.550781 -0.984375 0.855469 -0.578125 1.300781 -0.289062 C 1.734375 0.0117188 2.257812 0.15625 2.863281 0.15625 C 3.179688 0.15625 3.46875 0.117188 3.757812 0.0273438 C 4.042969 -0.0664062 4.292969 -0.195312 4.519531 -0.378906 C 4.726562 -0.566406 4.898438 -0.773438 5.03125 -1.039062 C 5.160156 -1.285156 5.226562 -1.574219 5.226562 -1.917969 C 5.226562 -2.335938 5.09375 -2.707031 4.832031 -3.019531 C 4.570312 -3.335938 4.136719 -3.585938 3.53125 -3.796875 L 2.769531 -4.042969 C 2.285156 -4.203125 2.046875 -4.425781 2.046875 -4.742188 C 2.046875 -4.925781 2.113281 -5.070312 2.273438 -5.175781 C 2.417969 -5.277344 2.601562 -5.332031 2.824219 -5.332031 C 3.058594 -5.332031 3.28125 -5.253906 3.46875 -5.09375 C 3.652344 -4.9375 3.808594 -4.726562 3.941406 -4.476562 L 5.160156 -5.136719 C 4.949219 -5.582031 4.648438 -5.9375 4.230469 -6.199219 C 3.808594 -6.460938 3.347656 -6.59375 2.824219 -6.59375 C 2.507812 -6.59375 2.21875 -6.539062 1.957031 -6.449219 C 1.695312 -6.355469 1.457031 -6.226562 1.261719 -6.054688 C 1.050781 -5.882812 0.894531 -5.671875 0.773438 -5.4375 C 0.65625 -5.1875 0.605469 -4.910156 0.605469 -4.621094 C 0.605469 -3.730469 1.140625 -3.097656 2.246094 -2.757812 L 3.019531 -2.507812 C 3.269531 -2.429688 3.453125 -2.335938 3.570312 -2.234375 C 3.691406 -2.128906 3.757812 -1.984375 3.757812 -1.8125 C 3.757812 -1.574219 3.664062 -1.40625 3.492188 -1.300781 C 3.324219 -1.195312 3.125 -1.140625 2.890625 -1.140625 C 2.601562 -1.140625 2.335938 -1.222656 2.113281 -1.40625 C 1.878906 -1.589844 1.707031 -1.824219 1.601562 -2.128906 Z M 1.601562 -2.128906 "/></g></g></g><g clip-path="url(#id2)"><path fill="rgb(92.549133%, 7.839966%, 20.779419%)" d="M 159.375 36.058594 C 159.292969 36.058594 159.207031 36.035156 159.144531 35.972656 L 157.628906 34.433594 C 157.566406 34.367188 157.542969 34.28125 157.542969 34.199219 C 157.542969 34.113281 157.585938 34.027344 157.628906 33.960938 L 161.441406 30.113281 L 157.648438 26.242188 C 157.585938 26.175781 157.566406 26.089844 157.566406 26.003906 C 157.566406 25.917969 157.609375 25.832031 157.648438 25.769531 L 159.167969 24.230469 C 159.292969 24.101562 159.480469 24.101562 159.609375 24.230469 L 165.125 29.832031 C 165.191406 29.898438 165.230469 30.003906 165.210938 30.089844 C 165.210938 30.175781 165.191406 30.28125 165.125 30.347656 L 159.609375 35.972656 C 159.546875 36.035156 159.460938 36.058594 159.375 36.058594 Z M 158.300781 34.199219 L 159.375 35.289062 L 164.472656 30.113281 L 159.375 24.933594 L 158.300781 26.027344 L 162.113281 29.898438 C 162.242188 30.027344 162.242188 30.21875 162.113281 30.347656 Z M 158.300781 34.199219 " fill-opacity="1" fill-rule="nonzero"/></g><g clip-path="url(#id3)"><path fill="rgb(92.549133%, 7.839966%, 20.779419%)" d="M 165.191406 36.058594 C 165.105469 36.058594 165.019531 36.035156 164.957031 35.972656 L 163.441406 34.433594 C 163.378906 34.367188 163.355469 34.28125 163.355469 34.199219 C 163.355469 34.113281 163.398438 34.027344 163.441406 33.960938 L 167.253906 30.113281 L 163.460938 26.242188 C 163.398438 26.175781 163.378906 26.089844 163.378906 26.003906 C 163.378906 25.917969 163.421875 25.832031 163.460938 25.769531 L 164.980469 24.230469 C 165.105469 24.101562 165.292969 24.101562 165.421875 24.230469 L 170.9375 29.832031 C 171.003906 29.898438 171.042969 30.003906 171.023438 30.089844 C 171.023438 30.175781 171.003906 30.28125 170.9375 30.347656 L 165.421875 35.972656 C 165.359375 36.035156 165.273438 36.058594 165.191406 36.058594 Z M 164.136719 34.199219 L 165.210938 35.289062 L 170.285156 30.113281 L 165.191406 24.933594 L 164.117188 26.027344 L 167.925781 29.898438 C 168.054688 30.027344 168.054688 30.21875 167.925781 30.347656 Z M 164.136719 34.199219 " fill-opacity="1" fill-rule="nonzero"/></g></svg>