<svg xmlns="http://www.w3.org/2000/svg" xmlns:xlink="http://www.w3.org/1999/xlink" width="250" zoomAndPan="magnify" viewBox="0 0 187.5 60" height="80" preserveAspectRatio="xMidYMid meet" version="1.0"><defs><g/><clipPath id="id1"><path d="M 0 0.078125 L 187 0.078125 L 187 59.917969 L 0 59.917969 Z M 0 0.078125 " clip-rule="nonzero"/></clipPath><clipPath id="id2"><path d="M 157.542969 24.078125 L 166 24.078125 L 166 36.078125 L 157.542969 36.078125 Z M 157.542969 24.078125 " clip-rule="nonzero"/></clipPath><clipPath id="id3"><path d="M 163 24.078125 L 171.042969 24.078125 L 171.042969 36.078125 L 163 36.078125 Z M 163 24.078125 " clip-rule="nonzero"/></clipPath></defs><g clip-path="url(#id1)"><path fill="rgb(100%, 100%, 100%)" d="M 185.511719 60.078125 L 1.988281 60.078125 C 0.894531 60.078125 0 59.1875 0 58.089844 L 0 2.070312 C 0 0.972656 0.894531 0.078125 1.988281 0.078125 L 185.511719 0.078125 C 186.605469 0.078125 187.5 0.972656 187.5 2.070312 L 187.5 58.089844 C 187.5 59.1875 186.605469 60.078125 185.511719 60.078125 " fill-opacity="1" fill-rule="nonzero"/></g><g fill="rgb(92.549133%, 7.839966%, 20.779419%)" fill-opacity="1"><g transform="translate(15.623813, 34.579786)"><g><path d="M 11.320312 -9.191406 L 9.457031 -9.191406 L 6.226562 -2.21875 L 2.996094 -9.191406 L 1.078125 -9.191406 L 1.078125 0 L 2.613281 0 L 2.613281 -6.527344 L 5.671875 0 L 6.710938 0 L 9.785156 -6.539062 L 9.785156 0 L 11.320312 0 Z M 11.320312 -9.191406 "/></g></g></g><g fill="rgb(92.549133%, 7.839966%, 20.779419%)" fill-opacity="1"><g transform="translate(28.013758, 34.579786)"><g><path d="M 1.523438 2.914062 C 2.0625 2.914062 2.519531 2.757812 2.902344 2.417969 C 3.28125 2.089844 3.636719 1.535156 3.953125 0.773438 L 6.933594 -6.433594 L 5.371094 -6.433594 L 3.558594 -1.800781 L 1.800781 -6.433594 L 0.183594 -6.433594 L 2.757812 -0.09375 L 2.480469 0.578125 C 2.324219 0.945312 2.167969 1.207031 1.984375 1.351562 C 1.800781 1.496094 1.5625 1.5625 1.300781 1.5625 C 1.050781 1.5625 0.828125 1.523438 0.628906 1.429688 L 0.628906 2.730469 C 0.734375 2.785156 0.855469 2.824219 1 2.863281 C 1.140625 2.902344 1.3125 2.914062 1.523438 2.914062 Z M 1.523438 2.914062 "/></g></g></g><g fill="rgb(92.549133%, 7.839966%, 20.779419%)" fill-opacity="1"><g transform="translate(35.127473, 34.579786)"><g/></g></g><g fill="rgb(0%, 0%, 0%)" fill-opacity="1"><g transform="translate(38.252717, 34.579786)"><g><path d="M 0.25 -9.191406 L 0.25 -7.734375 L 2.796875 -7.734375 L 2.796875 0 L 4.386719 0 L 4.386719 -7.734375 L 6.933594 -7.734375 L 6.933594 -9.191406 Z M 0.25 -9.191406 "/></g></g></g><g fill="rgb(0%, 0%, 0%)" fill-opacity="1"><g transform="translate(45.432064, 34.579786)"><g><path d="M 4.648438 -4.976562 L 4.648438 -6.527344 C 4.621094 -6.554688 4.519531 -6.566406 4.359375 -6.566406 C 3.941406 -6.566406 3.546875 -6.449219 3.203125 -6.226562 C 2.851562 -6 2.601562 -5.699219 2.441406 -5.332031 L 2.441406 -6.433594 L 0.945312 -6.433594 L 0.945312 0 L 2.457031 0 L 2.457031 -2.835938 C 2.457031 -3.492188 2.613281 -4.03125 2.929688 -4.425781 C 3.242188 -4.820312 3.691406 -5.03125 4.253906 -5.03125 C 4.4375 -5.03125 4.570312 -5.003906 4.648438 -4.976562 Z M 4.648438 -4.976562 "/></g></g></g><g fill="rgb(0%, 0%, 0%)" fill-opacity="1"><g transform="translate(50.393295, 34.579786)"><g><path d="M 7.339844 -6.433594 L 5.84375 -6.433594 L 5.84375 -5.554688 C 5.609375 -5.882812 5.292969 -6.132812 4.910156 -6.316406 C 4.519531 -6.5 4.109375 -6.59375 3.664062 -6.59375 C 3.21875 -6.59375 2.796875 -6.5 2.417969 -6.328125 C 2.035156 -6.144531 1.707031 -5.910156 1.429688 -5.609375 C 1.140625 -5.304688 0.917969 -4.949219 0.761719 -4.542969 C 0.605469 -4.125 0.523438 -3.691406 0.523438 -3.21875 C 0.523438 -2.746094 0.605469 -2.296875 0.761719 -1.890625 C 0.917969 -1.472656 1.140625 -1.117188 1.429688 -0.8125 C 1.707031 -0.511719 2.035156 -0.277344 2.417969 -0.105469 C 2.796875 0.078125 3.21875 0.15625 3.664062 0.15625 C 4.109375 0.15625 4.519531 0.0664062 4.910156 -0.132812 C 5.292969 -0.328125 5.609375 -0.589844 5.84375 -0.933594 L 5.84375 0 L 7.339844 0 Z M 2.046875 -3.21875 C 2.046875 -3.492188 2.089844 -3.757812 2.191406 -3.992188 C 2.296875 -4.230469 2.429688 -4.4375 2.601562 -4.621094 C 2.769531 -4.804688 2.980469 -4.949219 3.21875 -5.054688 C 3.453125 -5.160156 3.703125 -5.214844 3.980469 -5.214844 C 4.242188 -5.214844 4.503906 -5.160156 4.742188 -5.054688 C 4.976562 -4.949219 5.175781 -4.804688 5.34375 -4.621094 C 5.515625 -4.4375 5.648438 -4.230469 5.753906 -3.992188 C 5.855469 -3.757812 5.910156 -3.492188 5.910156 -3.21875 C 5.910156 -2.929688 5.855469 -2.664062 5.753906 -2.429688 C 5.648438 -2.191406 5.515625 -1.984375 5.34375 -1.800781 C 5.175781 -1.617188 4.976562 -1.484375 4.742188 -1.378906 C 4.503906 -1.273438 4.242188 -1.222656 3.980469 -1.222656 C 3.703125 -1.222656 3.453125 -1.273438 3.21875 -1.378906 C 2.980469 -1.484375 2.769531 -1.617188 2.601562 -1.800781 C 2.429688 -1.984375 2.296875 -2.191406 2.191406 -2.429688 C 2.089844 -2.664062 2.046875 -2.929688 2.046875 -3.21875 Z M 2.046875 -3.21875 "/></g></g></g><g fill="rgb(0%, 0%, 0%)" fill-opacity="1"><g transform="translate(58.688258, 34.579786)"><g><path d="M 5.84375 0 L 7.355469 0 L 7.355469 -9.191406 L 5.84375 -9.191406 L 5.84375 -5.554688 C 5.609375 -5.882812 5.292969 -6.132812 4.910156 -6.316406 C 4.519531 -6.5 4.109375 -6.59375 3.664062 -6.59375 C 3.21875 -6.59375 2.796875 -6.5 2.417969 -6.328125 C 2.035156 -6.144531 1.707031 -5.910156 1.429688 -5.609375 C 1.140625 -5.304688 0.917969 -4.949219 0.761719 -4.542969 C 0.605469 -4.125 0.523438 -3.691406 0.523438 -3.21875 C 0.523438 -2.730469 0.605469 -2.285156 0.761719 -1.878906 C 0.917969 -1.457031 1.140625 -1.101562 1.429688 -0.800781 C 1.707031 -0.5 2.035156 -0.261719 2.417969 -0.09375 C 2.796875 0.078125 3.21875 0.15625 3.664062 0.15625 C 4.109375 0.15625 4.519531 0.0664062 4.910156 -0.132812 C 5.292969 -0.316406 5.609375 -0.578125 5.84375 -0.917969 Z M 2.046875 -3.21875 C 2.046875 -3.492188 2.089844 -3.757812 2.191406 -3.992188 C 2.296875 -4.230469 2.429688 -4.4375 2.601562 -4.621094 C 2.769531 -4.804688 2.980469 -4.949219 3.21875 -5.054688 C 3.453125 -5.160156 3.703125 -5.214844 3.980469 -5.214844 C 4.242188 -5.214844 4.503906 -5.160156 4.742188 -5.054688 C 4.976562 -4.949219 5.175781 -4.804688 5.34375 -4.621094 C 5.515625 -4.4375 5.648438 -4.230469 5.753906 -3.992188 C 5.855469 -3.757812 5.910156 -3.492188 5.910156 -3.21875 C 5.910156 -2.929688 5.855469 -2.664062 5.753906 -2.429688 C 5.648438 -2.191406 5.515625 -1.984375 5.34375 -1.800781 C 5.175781 -1.617188 4.976562 -1.484375 4.742188 -1.378906 C 4.503906 -1.273438 4.242188 -1.222656 3.980469 -1.222656 C 3.703125 -1.222656 3.453125 -1.273438 3.21875 -1.378906 C 2.980469 -1.484375 2.769531 -1.617188 2.601562 -1.800781 C 2.429688 -1.984375 2.296875 -2.191406 2.191406 -2.429688 C 2.089844 -2.664062 2.046875 -2.929688 2.046875 -3.21875 Z M 2.046875 -3.21875 "/></g></g></g><g fill="rgb(0%, 0%, 0%)" fill-opacity="1"><g transform="translate(66.983222, 34.579786)"><g><path d="M 6.777344 -1.511719 L 5.527344 -2.101562 C 5.34375 -1.8125 5.121094 -1.589844 4.886719 -1.40625 C 4.636719 -1.222656 4.308594 -1.128906 3.886719 -1.128906 C 3.652344 -1.128906 3.414062 -1.167969 3.203125 -1.246094 C 2.980469 -1.328125 2.785156 -1.445312 2.625 -1.589844 C 2.457031 -1.734375 2.324219 -1.902344 2.21875 -2.101562 C 2.113281 -2.296875 2.046875 -2.519531 2.035156 -2.757812 L 6.988281 -2.757812 C 6.988281 -2.941406 7 -3.085938 7 -3.21875 C 7 -3.691406 6.921875 -4.136719 6.761719 -4.558594 C 6.605469 -4.964844 6.382812 -5.320312 6.09375 -5.621094 C 5.804688 -5.921875 5.476562 -6.160156 5.082031 -6.328125 C 4.6875 -6.5 4.269531 -6.59375 3.796875 -6.59375 C 3.324219 -6.59375 2.890625 -6.5 2.496094 -6.328125 C 2.101562 -6.160156 1.746094 -5.921875 1.457031 -5.621094 C 1.167969 -5.320312 0.933594 -4.964844 0.773438 -4.558594 C 0.605469 -4.136719 0.523438 -3.691406 0.523438 -3.21875 C 0.523438 -2.71875 0.605469 -2.257812 0.773438 -1.851562 C 0.933594 -1.429688 1.167969 -1.078125 1.457031 -0.789062 C 1.746094 -0.484375 2.101562 -0.25 2.519531 -0.09375 C 2.929688 0.078125 3.375 0.15625 3.875 0.15625 C 4.558594 0.15625 5.136719 0.0117188 5.632812 -0.289062 C 6.121094 -0.589844 6.5 -1 6.777344 -1.511719 Z M 5.488281 -3.859375 L 2.046875 -3.859375 C 2.074219 -4.042969 2.128906 -4.214844 2.234375 -4.398438 C 2.324219 -4.582031 2.441406 -4.742188 2.601562 -4.871094 C 2.757812 -5.003906 2.929688 -5.121094 3.125 -5.214844 C 3.324219 -5.292969 3.53125 -5.34375 3.769531 -5.34375 C 3.992188 -5.34375 4.203125 -5.304688 4.414062 -5.226562 C 4.609375 -5.148438 4.78125 -5.054688 4.9375 -4.925781 C 5.082031 -4.792969 5.199219 -4.636719 5.304688 -4.453125 C 5.398438 -4.269531 5.464844 -4.070312 5.488281 -3.859375 Z M 5.488281 -3.859375 "/></g></g></g><g fill="rgb(0%, 0%, 0%)" fill-opacity="1"><g transform="translate(74.438188, 34.579786)"><g/></g></g><g fill="rgb(0%, 0%, 0%)" fill-opacity="1"><g transform="translate(77.575048, 34.579786)"><g><path d="M 1.824219 -2.796875 L 0.433594 -2.140625 C 0.683594 -1.40625 1.101562 -0.828125 1.695312 -0.433594 C 2.273438 -0.0390625 2.953125 0.15625 3.730469 0.15625 C 4.148438 0.15625 4.542969 0.105469 4.925781 -0.0273438 C 5.292969 -0.15625 5.621094 -0.339844 5.910156 -0.578125 C 6.183594 -0.8125 6.410156 -1.117188 6.578125 -1.457031 C 6.738281 -1.800781 6.828125 -2.191406 6.828125 -2.640625 C 6.828125 -3.242188 6.644531 -3.757812 6.289062 -4.175781 C 5.9375 -4.597656 5.398438 -4.9375 4.6875 -5.226562 L 3.558594 -5.660156 C 3.179688 -5.804688 2.890625 -5.960938 2.707031 -6.144531 C 2.507812 -6.328125 2.417969 -6.554688 2.417969 -6.84375 C 2.417969 -7.15625 2.535156 -7.40625 2.769531 -7.605469 C 3.007812 -7.789062 3.308594 -7.894531 3.675781 -7.894531 C 4.070312 -7.894531 4.398438 -7.761719 4.660156 -7.523438 C 4.925781 -7.289062 5.121094 -6.988281 5.265625 -6.644531 L 6.617188 -7.328125 C 6.355469 -7.957031 5.976562 -8.457031 5.449219 -8.8125 C 4.925781 -9.167969 4.320312 -9.351562 3.664062 -9.363281 C 3.257812 -9.363281 2.875 -9.296875 2.535156 -9.179688 C 2.191406 -9.046875 1.890625 -8.878906 1.628906 -8.65625 C 1.367188 -8.417969 1.167969 -8.140625 1.023438 -7.828125 C 0.878906 -7.5 0.8125 -7.144531 0.8125 -6.75 C 0.8125 -6.121094 1 -5.59375 1.378906 -5.1875 C 1.746094 -4.765625 2.285156 -4.4375 2.96875 -4.203125 L 4.058594 -3.808594 C 4.820312 -3.519531 5.214844 -3.097656 5.214844 -2.535156 C 5.214844 -2.140625 5.070312 -1.839844 4.78125 -1.628906 C 4.492188 -1.417969 4.148438 -1.328125 3.757812 -1.328125 C 3.28125 -1.328125 2.890625 -1.457031 2.5625 -1.71875 C 2.234375 -1.984375 1.984375 -2.351562 1.824219 -2.796875 Z M 1.824219 -2.796875 "/></g></g></g><g fill="rgb(0%, 0%, 0%)" fill-opacity="1"><g transform="translate(84.872521, 34.579786)"><g><path d="M 5.277344 -6.433594 L 5.277344 -3.046875 C 5.277344 -2.496094 5.136719 -2.046875 4.871094 -1.734375 C 4.597656 -1.40625 4.230469 -1.246094 3.78125 -1.246094 C 3.335938 -1.246094 2.980469 -1.378906 2.746094 -1.667969 C 2.507812 -1.957031 2.390625 -2.351562 2.390625 -2.851562 L 2.390625 -6.433594 L 0.867188 -6.433594 L 0.867188 -2.5625 C 0.867188 -1.71875 1.078125 -1.050781 1.511719 -0.566406 C 1.945312 -0.078125 2.546875 0.15625 3.324219 0.15625 C 3.769531 0.15625 4.148438 0.0664062 4.476562 -0.117188 C 4.804688 -0.300781 5.070312 -0.539062 5.277344 -0.855469 L 5.277344 0 L 6.800781 0 L 6.800781 -6.433594 Z M 5.277344 -6.433594 "/></g></g></g><g fill="rgb(0%, 0%, 0%)" fill-opacity="1"><g transform="translate(92.616234, 34.579786)"><g><path d="M 4.648438 -4.976562 L 4.648438 -6.527344 C 4.621094 -6.554688 4.519531 -6.566406 4.359375 -6.566406 C 3.941406 -6.566406 3.546875 -6.449219 3.203125 -6.226562 C 2.851562 -6 2.601562 -5.699219 2.441406 -5.332031 L 2.441406 -6.433594 L 0.945312 -6.433594 L 0.945312 0 L 2.457031 0 L 2.457031 -2.835938 C 2.457031 -3.492188 2.613281 -4.03125 2.929688 -4.425781 C 3.242188 -4.820312 3.691406 -5.03125 4.253906 -5.03125 C 4.4375 -5.03125 4.570312 -5.003906 4.648438 -4.976562 Z M 4.648438 -4.976562 "/></g></g></g><g fill="rgb(0%, 0%, 0%)" fill-opacity="1"><g transform="translate(97.577465, 34.579786)"><g><path d="M 0.183594 -6.433594 L 2.835938 0 L 4.175781 0 L 6.828125 -6.433594 L 5.253906 -6.433594 L 3.519531 -1.96875 L 1.800781 -6.433594 Z M 0.183594 -6.433594 "/></g></g></g><g fill="rgb(0%, 0%, 0%)" fill-opacity="1"><g transform="translate(104.586181, 34.579786)"><g><path d="M 6.777344 -1.511719 L 5.527344 -2.101562 C 5.34375 -1.8125 5.121094 -1.589844 4.886719 -1.40625 C 4.636719 -1.222656 4.308594 -1.128906 3.886719 -1.128906 C 3.652344 -1.128906 3.414062 -1.167969 3.203125 -1.246094 C 2.980469 -1.328125 2.785156 -1.445312 2.625 -1.589844 C 2.457031 -1.734375 2.324219 -1.902344 2.21875 -2.101562 C 2.113281 -2.296875 2.046875 -2.519531 2.035156 -2.757812 L 6.988281 -2.757812 C 6.988281 -2.941406 7 -3.085938 7 -3.21875 C 7 -3.691406 6.921875 -4.136719 6.761719 -4.558594 C 6.605469 -4.964844 6.382812 -5.320312 6.09375 -5.621094 C 5.804688 -5.921875 5.476562 -6.160156 5.082031 -6.328125 C 4.6875 -6.5 4.269531 -6.59375 3.796875 -6.59375 C 3.324219 -6.59375 2.890625 -6.5 2.496094 -6.328125 C 2.101562 -6.160156 1.746094 -5.921875 1.457031 -5.621094 C 1.167969 -5.320312 0.933594 -4.964844 0.773438 -4.558594 C 0.605469 -4.136719 0.523438 -3.691406 0.523438 -3.21875 C 0.523438 -2.71875 0.605469 -2.257812 0.773438 -1.851562 C 0.933594 -1.429688 1.167969 -1.078125 1.457031 -0.789062 C 1.746094 -0.484375 2.101562 -0.25 2.519531 -0.09375 C 2.929688 0.078125 3.375 0.15625 3.875 0.15625 C 4.558594 0.15625 5.136719 0.0117188 5.632812 -0.289062 C 6.121094 -0.589844 6.5 -1 6.777344 -1.511719 Z M 5.488281 -3.859375 L 2.046875 -3.859375 C 2.074219 -4.042969 2.128906 -4.214844 2.234375 -4.398438 C 2.324219 -4.582031 2.441406 -4.742188 2.601562 -4.871094 C 2.757812 -5.003906 2.929688 -5.121094 3.125 -5.214844 C 3.324219 -5.292969 3.53125 -5.34375 3.769531 -5.34375 C 3.992188 -5.34375 4.203125 -5.304688 4.414062 -5.226562 C 4.609375 -5.148438 4.78125 -5.054688 4.9375 -4.925781 C 5.082031 -4.792969 5.199219 -4.636719 5.304688 -4.453125 C 5.398438 -4.269531 5.464844 -4.070312 5.488281 -3.859375 Z M 5.488281 -3.859375 "/></g></g></g><g fill="rgb(0%, 0%, 0%)" fill-opacity="1"><g transform="translate(112.041148, 34.579786)"><g><path d="M 0.945312 0 L 2.46875 0 L 2.46875 -6.433594 L 0.945312 -6.433594 Z M 2.640625 -8.3125 C 2.640625 -8.5625 2.546875 -8.785156 2.363281 -8.96875 C 2.179688 -9.152344 1.957031 -9.257812 1.695312 -9.257812 C 1.429688 -9.257812 1.222656 -9.167969 1.039062 -8.984375 C 0.855469 -8.796875 0.761719 -8.574219 0.761719 -8.3125 C 0.761719 -8.050781 0.855469 -7.839844 1.039062 -7.65625 C 1.222656 -7.472656 1.429688 -7.378906 1.695312 -7.378906 C 1.957031 -7.378906 2.179688 -7.472656 2.363281 -7.65625 C 2.546875 -7.839844 2.640625 -8.050781 2.640625 -8.3125 Z M 2.640625 -8.3125 "/></g></g></g><g fill="rgb(0%, 0%, 0%)" fill-opacity="1"><g transform="translate(115.453638, 34.579786)"><g><path d="M 2.46875 -9.191406 L 0.945312 -9.191406 L 0.945312 0 L 2.46875 0 Z M 2.46875 -9.191406 "/></g></g></g><g fill="rgb(0%, 0%, 0%)" fill-opacity="1"><g transform="translate(118.866129, 34.579786)"><g><path d="M 2.46875 -9.191406 L 0.945312 -9.191406 L 0.945312 0 L 2.46875 0 Z M 2.46875 -9.191406 "/></g></g></g><g fill="rgb(0%, 0%, 0%)" fill-opacity="1"><g transform="translate(122.278619, 34.579786)"><g><path d="M 7.339844 -6.433594 L 5.84375 -6.433594 L 5.84375 -5.554688 C 5.609375 -5.882812 5.292969 -6.132812 4.910156 -6.316406 C 4.519531 -6.5 4.109375 -6.59375 3.664062 -6.59375 C 3.21875 -6.59375 2.796875 -6.5 2.417969 -6.328125 C 2.035156 -6.144531 1.707031 -5.910156 1.429688 -5.609375 C 1.140625 -5.304688 0.917969 -4.949219 0.761719 -4.542969 C 0.605469 -4.125 0.523438 -3.691406 0.523438 -3.21875 C 0.523438 -2.746094 0.605469 -2.296875 0.761719 -1.890625 C 0.917969 -1.472656 1.140625 -1.117188 1.429688 -0.8125 C 1.707031 -0.511719 2.035156 -0.277344 2.417969 -0.105469 C 2.796875 0.078125 3.21875 0.15625 3.664062 0.15625 C 4.109375 0.15625 4.519531 0.0664062 4.910156 -0.132812 C 5.292969 -0.328125 5.609375 -0.589844 5.84375 -0.933594 L 5.84375 0 L 7.339844 0 Z M 2.046875 -3.21875 C 2.046875 -3.492188 2.089844 -3.757812 2.191406 -3.992188 C 2.296875 -4.230469 2.429688 -4.4375 2.601562 -4.621094 C 2.769531 -4.804688 2.980469 -4.949219 3.21875 -5.054688 C 3.453125 -5.160156 3.703125 -5.214844 3.980469 -5.214844 C 4.242188 -5.214844 4.503906 -5.160156 4.742188 -5.054688 C 4.976562 -4.949219 5.175781 -4.804688 5.34375 -4.621094 C 5.515625 -4.4375 5.648438 -4.230469 5.753906 -3.992188 C 5.855469 -3.757812 5.910156 -3.492188 5.910156 -3.21875 C 5.910156 -2.929688 5.855469 -2.664062 5.753906 -2.429688 C 5.648438 -2.191406 5.515625 -1.984375 5.34375 -1.800781 C 5.175781 -1.617188 4.976562 -1.484375 4.742188 -1.378906 C 4.503906 -1.273438 4.242188 -1.222656 3.980469 -1.222656 C 3.703125 -1.222656 3.453125 -1.273438 3.21875 -1.378906 C 2.980469 -1.484375 2.769531 -1.617188 2.601562 -1.800781 C 2.429688 -1.984375 2.296875 -2.191406 2.191406 -2.429688 C 2.089844 -2.664062 2.046875 -2.929688 2.046875 -3.21875 Z M 2.046875 -3.21875 "/></g></g></g><g fill="rgb(0%, 0%, 0%)" fill-opacity="1"><g transform="translate(130.573583, 34.579786)"><g><path d="M 2.46875 0 L 2.46875 -3.386719 C 2.46875 -3.941406 2.601562 -4.375 2.875 -4.703125 C 3.152344 -5.015625 3.519531 -5.1875 3.980469 -5.1875 C 4.4375 -5.1875 4.792969 -5.042969 5.042969 -4.753906 C 5.277344 -4.464844 5.410156 -4.085938 5.410156 -3.585938 L 5.410156 0 L 6.933594 0 L 6.933594 -3.875 C 6.933594 -4.714844 6.710938 -5.371094 6.277344 -5.855469 C 5.832031 -6.34375 5.226562 -6.59375 4.4375 -6.59375 C 3.980469 -6.59375 3.585938 -6.5 3.257812 -6.316406 C 2.929688 -6.132812 2.664062 -5.882812 2.46875 -5.582031 L 2.46875 -6.433594 L 0.945312 -6.433594 L 0.945312 0 Z M 2.46875 0 "/></g></g></g><g fill="rgb(0%, 0%, 0%)" fill-opacity="1"><g transform="translate(138.369801, 34.579786)"><g><path d="M 0.523438 -3.21875 C 0.523438 -2.71875 0.605469 -2.273438 0.773438 -1.863281 C 0.933594 -1.445312 1.167969 -1.089844 1.472656 -0.789062 C 1.757812 -0.484375 2.113281 -0.25 2.535156 -0.09375 C 2.953125 0.078125 3.414062 0.15625 3.914062 0.15625 C 4.542969 0.15625 5.121094 0.0117188 5.671875 -0.300781 L 5.671875 -1.8125 C 5.4375 -1.65625 5.1875 -1.511719 4.925781 -1.40625 C 4.648438 -1.285156 4.359375 -1.234375 4.058594 -1.234375 C 3.769531 -1.234375 3.492188 -1.273438 3.257812 -1.378906 C 3.007812 -1.484375 2.796875 -1.617188 2.625 -1.800781 C 2.441406 -1.984375 2.3125 -2.191406 2.207031 -2.429688 C 2.101562 -2.664062 2.0625 -2.929688 2.0625 -3.21875 C 2.0625 -3.492188 2.101562 -3.757812 2.207031 -3.992188 C 2.3125 -4.230469 2.441406 -4.4375 2.625 -4.621094 C 2.808594 -4.804688 3.019531 -4.9375 3.257812 -5.042969 C 3.492188 -5.148438 3.769531 -5.199219 4.058594 -5.199219 C 4.609375 -5.199219 5.136719 -5.003906 5.648438 -4.621094 L 5.648438 -6.132812 C 5.136719 -6.433594 4.558594 -6.59375 3.925781 -6.59375 C 3.425781 -6.59375 2.96875 -6.5 2.546875 -6.328125 C 2.128906 -6.160156 1.773438 -5.921875 1.472656 -5.621094 C 1.167969 -5.320312 0.933594 -4.964844 0.773438 -4.558594 C 0.605469 -4.136719 0.523438 -3.691406 0.523438 -3.21875 Z M 0.523438 -3.21875 "/></g></g></g><g fill="rgb(0%, 0%, 0%)" fill-opacity="1"><g transform="translate(144.564773, 34.579786)"><g><path d="M 6.777344 -1.511719 L 5.527344 -2.101562 C 5.34375 -1.8125 5.121094 -1.589844 4.886719 -1.40625 C 4.636719 -1.222656 4.308594 -1.128906 3.886719 -1.128906 C 3.652344 -1.128906 3.414062 -1.167969 3.203125 -1.246094 C 2.980469 -1.328125 2.785156 -1.445312 2.625 -1.589844 C 2.457031 -1.734375 2.324219 -1.902344 2.21875 -2.101562 C 2.113281 -2.296875 2.046875 -2.519531 2.035156 -2.757812 L 6.988281 -2.757812 C 6.988281 -2.941406 7 -3.085938 7 -3.21875 C 7 -3.691406 6.921875 -4.136719 6.761719 -4.558594 C 6.605469 -4.964844 6.382812 -5.320312 6.09375 -5.621094 C 5.804688 -5.921875 5.476562 -6.160156 5.082031 -6.328125 C 4.6875 -6.5 4.269531 -6.59375 3.796875 -6.59375 C 3.324219 -6.59375 2.890625 -6.5 2.496094 -6.328125 C 2.101562 -6.160156 1.746094 -5.921875 1.457031 -5.621094 C 1.167969 -5.320312 0.933594 -4.964844 0.773438 -4.558594 C 0.605469 -4.136719 0.523438 -3.691406 0.523438 -3.21875 C 0.523438 -2.71875 0.605469 -2.257812 0.773438 -1.851562 C 0.933594 -1.429688 1.167969 -1.078125 1.457031 -0.789062 C 1.746094 -0.484375 2.101562 -0.25 2.519531 -0.09375 C 2.929688 0.078125 3.375 0.15625 3.875 0.15625 C 4.558594 0.15625 5.136719 0.0117188 5.632812 -0.289062 C 6.121094 -0.589844 6.5 -1 6.777344 -1.511719 Z M 5.488281 -3.859375 L 2.046875 -3.859375 C 2.074219 -4.042969 2.128906 -4.214844 2.234375 -4.398438 C 2.324219 -4.582031 2.441406 -4.742188 2.601562 -4.871094 C 2.757812 -5.003906 2.929688 -5.121094 3.125 -5.214844 C 3.324219 -5.292969 3.53125 -5.34375 3.769531 -5.34375 C 3.992188 -5.34375 4.203125 -5.304688 4.414062 -5.226562 C 4.609375 -5.148438 4.78125 -5.054688 4.9375 -4.925781 C 5.082031 -4.792969 5.199219 -4.636719 5.304688 -4.453125 C 5.398438 -4.269531 5.464844 -4.070312 5.488281 -3.859375 Z M 5.488281 -3.859375 "/></g></g></g><g clip-path="url(#id2)"><path fill="rgb(92.549133%, 7.839966%, 20.779419%)" d="M 159.375 36.058594 C 159.292969 36.058594 159.207031 36.035156 159.144531 35.972656 L 157.628906 34.433594 C 157.566406 34.367188 157.542969 34.28125 157.542969 34.199219 C 157.542969 34.113281 157.585938 34.027344 157.628906 33.960938 L 161.441406 30.113281 L 157.648438 26.242188 C 157.585938 26.175781 157.566406 26.089844 157.566406 26.003906 C 157.566406 25.917969 157.609375 25.832031 157.648438 25.769531 L 159.167969 24.230469 C 159.292969 24.101562 159.480469 24.101562 159.609375 24.230469 L 165.125 29.832031 C 165.191406 29.898438 165.230469 30.003906 165.210938 30.089844 C 165.210938 30.175781 165.191406 30.28125 165.125 30.347656 L 159.609375 35.972656 C 159.546875 36.035156 159.460938 36.058594 159.375 36.058594 Z M 158.300781 34.199219 L 159.375 35.289062 L 164.472656 30.113281 L 159.375 24.933594 L 158.300781 26.027344 L 162.113281 29.898438 C 162.242188 30.027344 162.242188 30.21875 162.113281 30.347656 Z M 158.300781 34.199219 " fill-opacity="1" fill-rule="nonzero"/></g><g clip-path="url(#id3)"><path fill="rgb(92.549133%, 7.839966%, 20.779419%)" d="M 165.191406 36.058594 C 165.105469 36.058594 165.019531 36.035156 164.957031 35.972656 L 163.441406 34.433594 C 163.378906 34.367188 163.355469 34.28125 163.355469 34.199219 C 163.355469 34.113281 163.398438 34.027344 163.441406 33.960938 L 167.253906 30.113281 L 163.460938 26.242188 C 163.398438 26.175781 163.378906 26.089844 163.378906 26.003906 C 163.378906 25.917969 163.421875 25.832031 163.460938 25.769531 L 164.980469 24.230469 C 165.105469 24.101562 165.292969 24.101562 165.421875 24.230469 L 170.9375 29.832031 C 171.003906 29.898438 171.042969 30.003906 171.023438 30.089844 C 171.023438 30.175781 171.003906 30.28125 170.9375 30.347656 L 165.421875 35.972656 C 165.359375 36.035156 165.273438 36.058594 165.191406 36.058594 Z M 164.136719 34.199219 L 165.210938 35.289062 L 170.285156 30.113281 L 165.191406 24.933594 L 164.117188 26.027344 L 167.925781 29.898438 C 168.054688 30.027344 168.054688 30.21875 167.925781 30.347656 Z M 164.136719 34.199219 " fill-opacity="1" fill-rule="nonzero"/></g></svg>